<svg width="350" height="222" viewBox="0 0 350 222" fill="none" xmlns="http://www.w3.org/2000/svg">
<path d="M171.186 269.36C205.861 304.035 253.1 323.19 302.133 322.459C313.676 322.287 322.983 312.953 323.123 301.409C323.717 252.54 304.566 205.495 270.007 170.936L191.387 92.3154C164.044 64.9731 126.944 49.6377 88.276 49.6949C67.229 49.7261 50.1749 66.7803 50.1437 87.8272C50.0864 126.495 65.4218 163.596 92.7642 190.938L171.186 269.36Z" fill="#ECC67D"/>
<path d="M229.906 219.868C239.178 217.417 247.853 213.139 255.423 207.287C256.429 206.509 255.989 204.902 254.723 204.728C245.216 203.414 235.544 203.997 226.288 206.444L196.053 214.437C186.677 216.916 177.888 221.198 170.177 227.042C169.118 227.845 169.575 229.531 170.9 229.704C180.539 230.961 190.32 230.333 199.696 227.854L229.906 219.868Z" fill="#E4E4E4"/>
<path d="M229.906 219.868C239.178 217.417 247.853 213.139 255.423 207.287C256.429 206.509 255.989 204.902 254.723 204.728C245.216 203.414 235.544 203.997 226.288 206.444L196.053 214.437C186.677 216.916 177.888 221.198 170.177 227.042C169.118 227.845 169.575 229.531 170.9 229.704C180.539 230.961 190.32 230.333 199.696 227.854L229.906 219.868Z" fill="#AD835D"/>
<path d="M199.239 189.201C208.511 186.75 217.187 182.473 224.756 176.62C225.762 175.843 225.322 174.236 224.056 174.061C214.55 172.748 204.878 173.331 195.621 175.778L165.386 183.771C156.011 186.25 147.221 190.531 139.511 196.376C138.451 197.179 138.909 198.864 140.233 199.037C149.872 200.295 159.654 199.667 169.029 197.188L199.239 189.201Z" fill="#E4E4E4"/>
<path d="M199.239 189.201C208.511 186.75 217.187 182.473 224.756 176.62C225.762 175.843 225.322 174.236 224.056 174.061C214.55 172.748 204.878 173.331 195.621 175.778L165.386 183.771C156.011 186.25 147.221 190.531 139.511 196.376C138.451 197.179 138.909 198.864 140.233 199.037C149.872 200.295 159.654 199.667 169.029 197.188L199.239 189.201Z" fill="#AD835D"/>
<path d="M167.375 157.337C176.647 154.886 185.323 150.609 192.892 144.756C193.898 143.979 193.458 142.372 192.192 142.197C182.685 140.884 173.013 141.467 163.757 143.914L133.522 151.907C124.146 154.386 115.357 158.667 107.646 164.512C106.587 165.315 107.044 167 108.369 167.173C118.008 168.431 127.789 167.803 137.165 165.324L167.375 157.337Z" fill="#E4E4E4"/>
<path d="M167.375 157.337C176.647 154.886 185.323 150.609 192.892 144.756C193.898 143.979 193.458 142.372 192.192 142.197C182.685 140.884 173.013 141.467 163.757 143.914L133.522 151.907C124.146 154.386 115.357 158.667 107.646 164.512C106.587 165.315 107.044 167 108.369 167.173C118.008 168.431 127.789 167.803 137.165 165.324L167.375 157.337Z" fill="#AD835D"/>
<path d="M138.315 128.278C147.587 125.826 156.263 121.549 163.832 115.697C164.838 114.919 164.398 113.312 163.133 113.137C153.626 111.824 143.954 112.407 134.697 114.854L104.463 122.847C95.0869 125.326 86.2973 129.607 78.5868 135.452C77.5271 136.255 77.9847 137.94 79.3095 138.113C88.9483 139.371 98.7298 138.743 108.106 136.264L138.315 128.278Z" fill="#E4E4E4"/>
<path d="M138.315 128.278C147.587 125.826 156.263 121.549 163.832 115.697C164.838 114.919 164.398 113.312 163.133 113.137C153.626 111.824 143.954 112.407 134.697 114.854L104.463 122.847C95.0869 125.326 86.2973 129.607 78.5868 135.452C77.5271 136.255 77.9847 137.94 79.3095 138.113C88.9483 139.371 98.7298 138.743 108.106 136.264L138.315 128.278Z" fill="#AD835D"/>
</svg>
