<svg width="359" height="263" viewBox="0 0 359 263" fill="none" xmlns="http://www.w3.org/2000/svg">
<path d="M220.68 70.1462C161.699 5.83451 123.379 45.1098 78.2932 79.3572C59.8103 93.3969 38.0285 101.897 15.9707 109.121C-51.1403 131.101 -96.1076 162.04 -38.3811 301.633C28.5356 463.451 177.668 363.679 217.248 340.514C256.827 317.349 251.397 288.195 271.91 265C292.122 242.146 336.367 219.451 310.504 161.089C286.646 107.253 269.509 123.389 220.68 70.1462Z" fill="#F9F9F9" stroke="#E3E3E3" stroke-opacity="0.29" stroke-width="2"/>
<circle cx="123.532" cy="214.611" r="70.7669" transform="rotate(-16.7121 123.532 214.611)" fill="#FFDC60"/>
<path d="M120.868 165.068C129.17 163.589 145.864 166.569 156.283 176.045C166.703 185.522 173.773 203.913 174.748 213.709" stroke="#FFE589" stroke-width="8" stroke-linecap="round" stroke-linejoin="round"/>
<path d="M206.161 95.3158C204.065 93.5178 200.908 93.7592 199.11 95.855C197.312 97.9508 197.554 101.107 199.649 102.905L206.161 95.3158ZM271.078 151.362L268.745 155.784L271.078 151.362ZM207.17 298.181C204.437 298.574 202.54 301.108 202.933 303.841C203.326 306.575 205.86 308.472 208.593 308.079L207.17 298.181ZM199.649 102.905C213.047 114.399 221.508 130.856 268.745 155.784L273.412 146.94C227.473 122.697 221.155 108.18 206.161 95.3158L199.649 102.905ZM268.745 155.784C273.42 158.251 277.486 163.1 280.259 169.709C283.015 176.279 284.334 184.245 283.762 192.342C282.621 208.497 274.092 224.426 255.535 231.124L258.931 240.53C282.021 232.195 292.383 212.208 293.737 193.046C294.412 183.485 292.879 173.943 289.48 165.84C286.097 157.777 280.705 150.789 273.412 146.94L268.745 155.784ZM255.535 231.124C232.332 239.5 225.43 257.555 221.221 272.449C219.035 280.184 217.718 286.322 215.447 291.117C213.375 295.492 211.014 297.628 207.17 298.181L208.593 308.079C216.873 306.889 221.537 301.619 224.484 295.397C227.232 289.596 228.929 281.945 230.844 275.169C234.836 261.041 240.486 247.189 258.931 240.53L255.535 231.124Z" fill="white"/>
</svg>
