<svg width="38" height="35" viewBox="0 0 38 35" fill="none" xmlns="http://www.w3.org/2000/svg">
<path d="M16.8984 6.38219C15.8438 8.49145 7.54736 22.975 4.38348 28.5996C3.84444 29.5579 3.56464 30.9901 5.74414 30.9901H8.39107C11.344 30.9901 12.6799 28.5996 12.1877 26.1389C11.494 21.5688 12.6799 20.3033 16.0547 18.3346C19.4295 16.366 24.4214 17.4206 25.0542 17.7722C25.6869 18.1237 25.6869 18.1237 25.4057 18.3346C23.2261 20.3736 24.7026 22.6937 21.8903 26.631C19.078 30.5683 14.3673 29.2324 16.6875 24.9436C19.0076 20.6548 21.82 20.5845 21.4684 19.6002C21.1169 18.6159 18.2342 20.4439 16.0547 23.1156C13.8751 25.7873 12.6799 30.7089 12.6799 32.3963C12.6799 34.0837 11.9065 34.4352 10.7816 34.4352H4.38348C-0.161701 34.4352 -1.40324 30.8495 1.78207 25.6467C3.89131 22.2016 12.9156 6.14524 14.9545 2.70013C16.9935 -0.744984 21.8448 0.520565 22.9697 2.70012C24.0946 4.87968 34.8973 24.5218 36.2332 26.9826C37.569 29.4433 38.1563 34.4352 31.9444 34.4352H23.4371C21.9606 34.4352 21.3278 33.7322 21.3278 32.6072C21.3278 31.4823 22.2418 30.8495 23.4371 30.8495H30.3976C34.3597 30.8495 33.0941 28.7403 32.2504 26.9826C31.4067 25.2248 22.2418 8.49145 21.0466 6.38219C19.8513 4.27294 17.953 4.27294 16.8984 6.38219Z" fill="white"/>
<path fill-rule="evenodd" clip-rule="evenodd" d="M31.9079 34.4353H23.4374C21.9609 34.4353 21.3281 33.7322 21.3281 32.6072C21.3281 31.4823 22.2421 30.8495 23.4374 30.8495H30.3979C33.093 30.8495 33.3693 29.8736 33.0048 28.6962C33.7752 30.8539 33.7224 33.0376 31.9079 34.4353Z" fill="#CCCCCC"/>
<path fill-rule="evenodd" clip-rule="evenodd" d="M4.09854 29.2485C3.83539 30.0964 4.02237 30.9902 5.74413 30.9902H8.39107C11.344 30.9902 12.6799 28.5997 12.1877 26.1389C11.494 21.5689 12.6799 20.3033 16.0547 18.3347C19.4295 16.366 24.4214 17.4207 25.0542 17.7722C25.4366 17.9846 25.5879 18.0687 25.5857 18.1485C25.5842 18.2008 25.517 18.2512 25.4057 18.3347C24.3542 19.3184 24.1536 20.3675 23.9119 21.6321C23.6525 22.9887 23.3458 24.5933 21.8903 26.6311C19.078 30.5683 14.3673 29.2325 16.6875 24.9437C18.0773 22.3745 19.6438 21.3191 20.601 20.6743C21.2417 20.2426 21.6094 19.9949 21.4684 19.6002C21.1169 18.6159 18.2342 20.4439 16.0547 23.1156C13.8751 25.7874 12.6799 30.7089 12.6799 32.3963C12.6799 34.0837 11.9065 34.4353 10.7816 34.4353H4.38348C4.3202 34.4353 4.25757 34.4346 4.19558 34.4332C2.90106 32.8303 3.22423 30.6644 4.08472 29.2507L4.09854 29.2485Z" fill="#CCCCCC"/>
</svg>
