<svg width="203" height="410" viewBox="0 0 203 410" fill="none" xmlns="http://www.w3.org/2000/svg">
<path fill-rule="evenodd" clip-rule="evenodd" d="M62.7669 29.4847H256.803V0.663818H63.4219C61.765 0.663818 60.4219 2.00696 60.4219 3.66382V28.8743L0.401733 87.9897V367.618H62.7669V29.4847Z" fill="#898989"/>
<rect x="125.132" y="90.9314" width="199.828" height="402.387" fill="#D5D5D5"/>
<path fill-rule="evenodd" clip-rule="evenodd" d="M62.7671 29.4846L125.132 90.4197V493.318H62.7671L0.401978 493.318V91.8126L62.7671 29.4847V29.4846L62.7671 29.4846Z" fill="#EFEFEF"/>
<path d="M267.798 29.4846H62.7671C62.7671 19.6331 62.7671 13.5698 62.7671 4.66332C62.7671 2.45418 64.5579 0.663225 66.7671 0.663225H267.798V29.4846Z" fill="#EDEDED"/>
<path d="M62.762 29.4736L266.188 29.1931L324.96 90.9705L125.143 90.9368L62.762 29.4736Z" fill="#BABABA"/>
<path d="M125.071 90.8892H0.401733L62.7316 29.4511L125.071 90.8892Z" fill="#939393"/>
</svg>
