<svg width="186" height="289" viewBox="0 0 186 289" fill="none" xmlns="http://www.w3.org/2000/svg">
<rect x="100.099" y="273.236" width="5.81568" height="14.418" fill="#C4C4C4"/>
<path d="M99.7444 284.153H105.65C105.978 284.153 106.143 284.153 106.296 284.204C106.449 284.254 106.58 284.352 106.844 284.548L110.433 287.219C110.664 287.391 110.801 287.661 110.801 287.949C110.801 288.452 110.393 288.86 109.89 288.86H99.7444V284.153Z" fill="black"/>
<rect x="117.818" y="273.236" width="5.81568" height="14.418" fill="#C4C4C4"/>
<path d="M117.463 284.153H123.368C123.697 284.153 123.861 284.153 124.014 284.204C124.167 284.254 124.299 284.352 124.562 284.548L128.152 287.219C128.383 287.391 128.519 287.661 128.519 287.949C128.519 288.452 128.111 288.86 127.608 288.86H117.463V284.153Z" fill="black"/>
<rect width="20.457" height="32.0128" transform="matrix(0.328829 -0.944389 0.977938 0.208897 3.14136 108.631)" fill="#D3D3D3"/>
<rect width="18.7192" height="29.2933" transform="matrix(0.328829 -0.944389 0.977938 0.208897 4.90765 107.759)" fill="#ECECEC"/>
<rect width="14.2147" height="0.751441" transform="matrix(0.328829 -0.944389 0.977938 0.208897 8.98291 106.344)" fill="#C4C4C4"/>
<rect width="14.2147" height="0.751441" transform="matrix(0.328829 -0.944389 0.977938 0.208897 14.4601 107.514)" fill="#C4C4C4"/>
<path fill-rule="evenodd" clip-rule="evenodd" d="M6.72669 96.6616C6.80199 96.6777 6.88355 96.6318 6.90887 96.559L8.83701 91.0215C8.91862 90.7871 9.18152 90.6391 9.42423 90.691C10.5044 90.9217 11.0857 91.9544 10.7224 92.9975L6.38892 105.443C6.0257 106.486 4.85559 107.145 3.77538 106.914C3.53268 106.862 3.40209 106.63 3.4837 106.396L5.47593 100.674C5.50125 100.602 5.46073 100.53 5.38543 100.514C4.30523 100.283 3.72399 99.2502 4.08721 98.2071L4.11315 98.1326C4.47637 97.0894 5.64649 96.4308 6.72669 96.6616ZM6.08345 98.2645C5.94695 98.6565 5.5072 98.904 5.10124 98.8173C4.69528 98.7306 4.47684 98.3425 4.61334 97.9504C4.74985 97.5584 5.1896 97.3109 5.59556 97.3976C6.00152 97.4843 6.21996 97.8724 6.08345 98.2645Z" fill="#9A9A9A"/>
<rect width="14.2147" height="0.751441" transform="matrix(0.328829 -0.944389 0.977938 0.208897 16.5336 107.957)" fill="#C4C4C4"/>
<rect width="14.2147" height="0.751441" transform="matrix(0.328829 -0.944389 0.977938 0.208897 18.6072 108.4)" fill="#C4C4C4"/>
<rect width="14.2147" height="0.751441" transform="matrix(0.328829 -0.944389 0.977938 0.208897 20.6807 108.843)" fill="#C4C4C4"/>
<rect width="14.2147" height="0.751441" transform="matrix(0.328829 -0.944389 0.977938 0.208897 22.7543 109.286)" fill="#C4C4C4"/>
<rect width="14.2147" height="0.751441" transform="matrix(0.328829 -0.944389 0.977938 0.208897 24.8279 109.729)" fill="#C4C4C4"/>
<rect width="14.2147" height="0.751441" transform="matrix(0.328829 -0.944389 0.977938 0.208897 26.9015 110.171)" fill="#C4C4C4"/>
<rect width="14.2147" height="0.751441" transform="matrix(0.328829 -0.944389 0.977938 0.208897 28.975 110.614)" fill="#C4C4C4"/>
<path d="M18.5284 113.224C18.0419 113.109 17.5912 112.875 17.2163 112.544C16.8414 112.214 16.5537 111.795 16.3786 111.327C19.6252 110.815 17.2957 108.254 17.2957 108.254C17.2957 108.254 16.3487 107.901 19.6703 105.818C22.2846 104.173 26.5761 105.466 27.9756 106.039C28.2426 106.145 28.4929 106.289 28.7189 106.466L30.5338 107.773L30.6411 107.834C41.1884 111.565 63.1791 114.813 63.1791 114.813L73.2343 101.948L76.5181 96.7676C76.5181 96.7676 89.4377 103.977 86.8036 109.73C84.1695 115.482 63.236 128.738 63.236 128.738C52.0304 129.103 32.3133 115.573 29.4083 113.528C28.9198 113.992 28.3763 114.394 27.79 114.726L27.7856 114.734C25.8485 116.158 24.542 115.571 24.542 115.571C23.9778 115.848 23.3351 115.923 22.7221 115.783C22.1091 115.642 21.5633 115.295 21.1766 114.799C20.6271 114.839 20.0784 114.71 19.6048 114.428C19.1312 114.147 18.7555 113.727 18.5284 113.224Z" fill="#D3A172"/>
<path d="M110.087 100.011C109.062 100.223 89.7748 108.987 85.5348 109.729C85.5348 109.729 80.4072 101.98 75.3883 98.3789C75.3883 98.3789 83.6737 85.2202 87.3658 83.6646C91.0579 82.1091 110.087 100.011 110.087 100.011Z" fill="#CFCFCF"/>
<path fill-rule="evenodd" clip-rule="evenodd" d="M94.227 148.968C93.9777 143.182 98.6008 138.356 104.392 138.356C110.011 138.356 114.566 142.911 114.566 148.53V196.81L112.204 230.956L106.772 279.95C106.716 280.456 106.288 280.84 105.778 280.84H100.868C100.333 280.84 99.8924 280.418 99.8693 279.883L96.084 192.055C95.7895 185.22 91.3712 178.554 91.3712 171.713C91.3712 170.913 91.4367 170.134 91.5609 169.383C92.332 164.723 94.7084 160.136 94.505 155.417L94.227 148.968Z" fill="#232323"/>
<path fill-rule="evenodd" clip-rule="evenodd" d="M111.945 148.968C111.696 143.182 116.319 138.356 122.11 138.356C127.729 138.356 132.284 142.911 132.284 148.53V196.81L129.922 230.956L124.49 279.95C124.434 280.456 124.006 280.84 123.496 280.84H118.587C118.051 280.84 117.611 280.418 117.588 279.883L113.802 192.055C113.508 185.22 109.089 178.554 109.089 171.713C109.089 170.913 109.155 170.134 109.279 169.383C110.05 164.723 112.427 160.136 112.223 155.417L111.945 148.968Z" fill="#232323"/>
<rect width="3.0915" height="2.19426" rx="0.5" transform="matrix(0.980172 0.19815 0.19815 -0.980172 172.756 47.1782)" fill="#ECECEC"/>
<path d="M183.591 1.37793L184.652 4.58546L181.368 3.92157L183.591 1.37793Z" fill="#C4C4C4"/>
<rect x="181.369" y="3.9104" width="3.35356" height="40.4025" transform="rotate(11.4288 181.369 3.9104)" fill="#9A9A9A"/>
<rect width="3.35356" height="2.38026" transform="matrix(0.980172 0.19815 0.19815 -0.980172 172.892 45.845)" fill="#CFCFCF"/>
<rect width="3.35356" height="2.38026" transform="matrix(0.980172 0.19815 0.19815 -0.980172 172.892 45.845)" fill="#CFCFCF"/>
<path d="M95.3847 78.0657C95.3847 78.0657 82.1154 79.9967 85.2547 95.1934C88.3941 110.39 91.9577 107.63 94.6121 148.156C94.6121 148.156 95.3138 149.968 101.533 152.122C109.9 155.022 125.329 152.607 125.329 152.607C125.329 152.607 134.099 150.439 133.016 145.126C132.149 140.872 127.854 127.553 132.891 115.089C136.27 106.733 137.233 106.879 130.723 93.8058C125.832 83.9968 125.332 79.8782 119.684 78.3403C117.712 77.799 95.3847 78.0657 95.3847 78.0657Z" fill="#CFCFCF"/>
<path d="M103.552 64.8018C103.552 61.7433 106.031 59.2639 109.089 59.2639C112.148 59.2639 114.627 61.7433 114.627 64.8018V78.7387C114.627 81.7972 112.148 84.2766 109.089 84.2766C106.031 84.2766 103.552 81.7972 103.552 78.7387V64.8018Z" fill="#D3A172"/>
<path fill-rule="evenodd" clip-rule="evenodd" d="M104.633 68.4402C113.107 68.4402 119.976 61.5709 119.976 53.0972C119.976 52.7288 120.2 52.4022 120.494 52.1799C121.084 51.7332 121.466 51.025 121.466 50.2276C121.466 47.9229 118.577 46.2861 117.268 44.3895C114.5 40.3809 109.873 37.7542 104.633 37.7542C96.1596 37.7542 89.2903 44.6235 89.2903 53.0972C89.2903 61.5709 96.1596 68.4402 104.633 68.4402Z" fill="#D3A172"/>
<path d="M103.707 34.3528C95.7158 34.3528 89.2379 40.8306 89.2379 48.8215V115.416C89.2379 121.809 94.4202 126.991 100.813 126.991C107.206 126.991 112.388 121.809 112.388 115.416V55.6017C111.993 55.7399 111.569 55.815 111.127 55.815C109.02 55.815 107.312 54.1069 107.312 51.9998C107.312 49.8926 109.02 48.1845 111.127 48.1845C111.755 48.1845 112.388 47.7408 112.388 47.1129V43.034C112.388 38.2395 108.501 34.3528 103.707 34.3528Z" fill="#454545"/>
<path d="M179.186 37.58C179.327 37.1004 179.349 36.5933 179.248 36.1035C179.148 35.6136 178.928 35.156 178.609 34.7711C176.55 37.3327 175.487 34.038 175.487 34.038C175.487 34.038 175.652 33.0411 172.192 34.886C169.465 36.3359 168.452 40.7019 168.253 42.201C168.212 42.4851 168.212 42.7737 168.253 43.0578L168.484 45.2824V45.406C166.474 56.4118 158.351 77.1039 158.351 77.1039L142.189 79.427L136.062 79.6983C136.062 79.6983 135.889 94.4924 142.189 95.0691C148.49 95.6458 170.403 84.0808 170.403 84.0808C176.293 74.5412 174.365 50.7065 174.036 47.1688C174.682 46.9759 175.301 46.7047 175.881 46.3613H175.89C178.089 45.3896 178.229 43.9638 178.229 43.9638C178.751 43.6125 179.136 43.0922 179.319 42.4905C179.501 41.8888 179.472 41.2425 179.234 40.6603C179.542 40.2037 179.703 39.6635 179.694 39.1126C179.686 38.5617 179.508 38.0267 179.186 37.58Z" fill="#D3A172"/>
<path d="M119.066 78.2468C120.093 78.4492 141.27 77.8611 145.465 78.8243C145.465 78.8243 147.182 87.9557 150.409 93.2232C150.409 93.2232 137.664 102.133 133.658 102.133C129.652 102.133 119.066 78.2468 119.066 78.2468Z" fill="#CFCFCF"/>
</svg>
